<svg width="40" height="22" viewBox="0 0 40 22" fill="none" xmlns="http://www.w3.org/2000/svg">
<path d="M16 11H8H0" stroke="#5DBD00"/>
<path d="M25 6.38746C22.5282 6.38746 20.5172 8.45663 20.5172 11C20.5172 13.5434 22.5282 15.6125 25 15.6125C27.4718 15.6125 29.4828 13.5434 29.4828 11C29.4828 8.45663 27.4718 6.38746 25 6.38746ZM25 14.282C23.2412 14.282 21.8103 12.8097 21.8103 11C21.8103 9.19031 23.2412 7.71801 25 7.71801C26.7588 7.71801 28.1897 9.19027 28.1897 11C28.1897 12.8097 26.7588 14.282 25 14.282Z" fill="#5DBD00"/>
<path d="M34.9134 10.6674L30.2367 2.33264C30.1212 2.12681 29.9077 2 29.6768 2H20.3232C20.0922 2 19.8788 2.12681 19.7633 2.33264L15.0866 10.6674C14.9711 10.8732 14.9711 11.1268 15.0866 11.3326L19.7634 19.6674C19.8789 19.8732 20.0923 20 20.3233 20H29.6768C29.9077 20 30.1212 19.8732 30.2367 19.6674L34.9134 11.3326C35.0289 11.1268 35.0289 10.8732 34.9134 10.6674ZM29.3035 18.6695H20.6965L16.3931 11L20.6965 3.33055H29.3034L33.6069 11L29.3035 18.6695Z" fill="#5DBD00"/>
</svg>
