<svg width="27" height="22" viewBox="0 0 27 22" fill="none" xmlns="http://www.w3.org/2000/svg">
<path d="M11.4231 6.38746C8.85617 6.38746 6.76785 8.45663 6.76785 11C6.76785 13.5434 8.85617 15.6125 11.4231 15.6125C13.99 15.6125 16.0783 13.5434 16.0783 11C16.0783 8.45663 13.99 6.38746 11.4231 6.38746ZM11.4231 14.282C9.5966 14.282 8.11071 12.8097 8.11071 11C8.11071 9.19031 9.59664 7.71801 11.4231 7.71801C13.2495 7.71801 14.7354 9.19027 14.7354 11C14.7354 12.8097 13.2496 14.282 11.4231 14.282Z" fill="#7DFF00"/>
<path d="M21.7177 10.6674L16.8612 2.33264C16.7412 2.12681 16.5196 2 16.2797 2H6.56643C6.32653 2 6.10488 2.12681 5.98497 2.33264L1.12842 10.6674C1.00846 10.8732 1.00846 11.1268 1.12842 11.3326L5.98501 19.6674C6.10496 19.8732 6.32657 20 6.56647 20H16.2797C16.5196 20 16.7413 19.8732 16.8612 19.6674L21.7177 11.3326C21.8377 11.1268 21.8377 10.8732 21.7177 10.6674ZM15.8921 18.6695H6.95407L2.48515 11L6.95407 3.33055H15.892L20.361 11L15.8921 18.6695Z" fill="#7DFF00"/>
</svg>
