<svg width="15" height="17" viewBox="0 0 15 17" fill="none" xmlns="http://www.w3.org/2000/svg">
<path d="M13.0002 14H2.00019C1.55068 14 0.5 14 0.5 13C0.5 12.5008 0.724527 12.2761 0.999102 12.0013L1.00168 11.9987C1.50197 11.498 2.50006 10.4991 2.50006 9.5V5.5C2.50006 3.33536 4.37432 1.92043 6.5 1.57977V1C6.50004 0.666667 6.7001 0 7.50006 0C8.30001 0 8.5 0.666667 8.5 1V1.57975C10.6257 1.92038 12.5001 3.33533 12.5001 5.5V9.5C12.5001 10.5 13.5001 11.5 14.0001 12C14.5001 12.5 14.5001 12.8803 14.5001 13C14.5001 14 13.3335 14 13.0002 14Z" fill="white"/>
<path d="M7.50006 17C5.50006 17 5.00006 15.6667 5.00006 15H10.0001C10.0001 15.6667 9.50006 17 7.50006 17Z" fill="white"/>
</svg>
