<svg width="12" height="12" viewBox="0 0 12 12" fill="none" xmlns="http://www.w3.org/2000/svg">
<g clip-path="url(#clip0_47_1113)">
<path d="M2.68586 11.7573C2.55438 11.7573 2.42382 11.7163 2.3124 11.6357C2.10485 11.4853 2.00789 11.2268 2.06438 10.9773L2.83637 7.57664L0.218262 5.28062C0.0258136 5.11262 -0.0477051 4.84656 0.0313069 4.60312C0.110319 4.36013 0.32529 4.1881 0.579813 4.16457L4.04389 3.85008L5.41346 0.645007C5.51445 0.409527 5.74444 0.257454 5.99997 0.257454C6.2555 0.257454 6.48548 0.409527 6.58647 0.644457L7.95604 3.85008L11.4196 4.16457C11.6746 4.18755 11.8896 4.36013 11.9686 4.60312C12.0476 4.8461 11.9746 5.11262 11.7821 5.28062L9.16402 7.57618L9.93601 10.9767C9.99259 11.2268 9.89554 11.4853 9.68808 11.6353C9.48107 11.7852 9.20504 11.7968 8.98704 11.6658L5.99997 9.88072L3.01289 11.6668C2.9119 11.7267 2.79938 11.7573 2.68586 11.7573ZM5.99997 9.11175C6.11349 9.11175 6.22592 9.14223 6.327 9.2022L9.14607 10.8883L8.41748 7.67863C8.36548 7.4502 8.44302 7.2117 8.61954 7.05716L11.0916 4.88913L7.821 4.59213C7.58552 4.57061 7.383 4.42257 7.29098 4.20558L5.99997 1.18097L4.70739 4.20604C4.61639 4.42156 4.41387 4.56961 4.17894 4.59112L0.907855 4.88813L3.37984 7.05615C3.55691 7.21115 3.63437 7.4492 3.5819 7.67818L2.85386 10.8877L5.67293 9.2022C5.77392 9.14223 5.88644 9.11175 5.99997 9.11175ZM4.01743 3.91206C4.01743 3.91206 4.01743 3.91261 4.01688 3.91307L4.01743 3.91206ZM7.98149 3.91059L7.98204 3.9116C7.98204 3.91105 7.98204 3.91105 7.98149 3.91059Z" fill="#535353"/>
</g>
<defs>
<clipPath id="clip0_47_1113">
<rect width="12" height="12" fill="white"/>
</clipPath>
</defs>
</svg>
