<svg width="86" height="21" viewBox="0 0 86 21" fill="none" xmlns="http://www.w3.org/2000/svg">
<path fill-rule="evenodd" clip-rule="evenodd" d="M2 4.725H47L49 6.825H53.5V4.725H56L58 6.825H61.5L53.5 1.575V0H54.5L55 1.05L60.5 4.725H64L66 6.825H70C70 6.125 70.3 4.725 71.5 4.725C72.7 4.725 74.3333 6.125 75 6.825H77.5C77.5 6.125 78 4.725 80 4.725C82.5 4.725 85.5 5.25 85.5 10.5C85.5 15.75 82.5 16.275 80 16.275C78 16.275 77.5 14.875 77.5 14.175H75C74.3333 14.875 72.7 16.275 71.5 16.275C70.3 16.275 70 14.875 70 14.175H66L64 16.275H60.5L55 19.95L54.5 21H53.5V19.425L61.5 14.175H58L56 16.275H53.5V14.175H49L47 16.275H2V16.85C2 17.4023 1.55228 17.85 1 17.85C0.447715 17.85 0 17.4023 0 16.85V4.15C0 3.59771 0.447715 3.15 1 3.15C1.55228 3.15 2 3.59772 2 4.15V4.725ZM35 10.5C35 10.2239 35.2239 10 35.5 10H55.5C55.7761 10 56 10.2239 56 10.5C56 10.7761 55.7761 11 55.5 11H35.5C35.2239 11 35 10.7761 35 10.5ZM59.5 10C59.2239 10 59 10.2239 59 10.5C59 10.7761 59.2239 11 59.5 11H83.5C83.7761 11 84 10.7761 84 10.5C84 10.2239 83.7761 10 83.5 10H59.5Z" fill="#5DBD00"/>
</svg>
